<svg version="1.1" id="Layer_1" xmlns="http://www.w3.org/2000/svg" xmlns:xlink="http://www.w3.org/1999/xlink" x="0px" y="0px" width="75px" height="75px" viewBox="0 0 75 75" enable-background="new 0 0 75 75" xml:space="preserve">
                    <circle fill="#FFFFFF" stroke="#686867" stroke-width="6" stroke-miterlimit="10" cx="37.427" cy="37.427" r="34.427" />
                    <path fill="#FFFFFF" stroke="#686867" stroke-width="6" stroke-miterlimit="10" d="M38.064,59.831c0,0.156-0.126,0.282-0.282,0.282
    l0,0c-0.156,0-0.282-0.126-0.282-0.282V16.323c0-0.156,0.126-0.282,0.282-0.282l0,0c0.156,0,0.282,0.126,0.282,0.282V59.831z" />
                    <path fill="#FFFFFF" stroke="#686867" stroke-width="6" stroke-miterlimit="10" d="M59.972,38.398c0,0.178-0.145,0.322-0.322,0.322
    H15.577c-0.178,0-0.322-0.145-0.322-0.322l0,0c0-0.178,0.144-0.321,0.322-0.321h44.073C59.827,38.077,59.972,38.221,59.972,38.398
    L59.972,38.398z" />
                </svg>